<svg xmlns="http://www.w3.org/2000/svg" viewBox="0 0 160.68 244.5"><defs><style>.cls-1{fill:#f8e8a3;}.cls-2{fill:none;stroke:#333e6e;stroke-linecap:round;stroke-linejoin:round;stroke-width:2px;}</style></defs><title>Asset 105</title><g id="Layer_2" data-name="Layer 2"><g id="Layer_1-2" data-name="Layer 1"><path class="cls-1" d="M80.78,212.1l2.76,24.4H67.89V212.1S28.31,213,1.61,175.74c0,0,33.24-1.72,32.54-10.12-1.11-13.21-7.08-12-32.54-19.84-5-1.53,3.22-51,3.22-51S26.22,111.91,36,102.67,19.23,66.3,19.23,66.3l7.55-19s9,10.35,15,7.55-3-15.1-8.55-20.7L67.07,0s37.32,23.13,51.29,52.72c0,0-11.91-4.93-15.61,11.5s18.49,2.88,18.49,2.88l15.61,28.35s-13.15,2-23.42,18.08,8.63,12.32,12.74,4.72,15.2-8,15.2-8,14,36.15,3.29,65.73c-8.7,24.09-7,5.68-16.34,2a7.28,7.28,0,0,0-9.71,8.72c1,3.55,4.36,7.58,13.31,10.65C136.46,198.9,96.2,218.23,80.78,212.1Z"/><path class="cls-2" d="M91.78,219.1l2.76,24.4H78.89V219.1s-39.58.92-66.28-36.36c0,0,33.24-1.72,32.54-10.12-1.11-13.21-7.08-12-32.54-19.84-5-1.53,3.22-51,3.22-51S37.22,118.91,47,109.67,30.23,73.3,30.23,73.3l7.55-19s9,10.35,15,7.55-3-15.1-8.55-20.7L78.07,7s37.32,23.13,51.29,52.72c0,0-11.91-4.93-15.61,11.5s18.49,2.88,18.49,2.88l15.61,28.35s-13.15,2-23.42,18.08,8.63,12.32,12.74,4.72,15.2-8,15.2-8,14,36.15,3.29,65.73c-8.7,24.09-7,5.68-16.34,2a7.28,7.28,0,0,0-9.71,8.72c1,3.55,4.36,7.58,13.31,10.65C147.46,205.9,107.2,225.23,91.78,219.1Z"/><path class="cls-2" d="M75.06,74.1s.9,73,13.06,100.94"/><ellipse class="cls-2" cx="97.11" cy="50.82" rx="5.56" ry="9.14" transform="translate(-4.5 9.73) rotate(-5.61)"/><ellipse class="cls-2" cx="43.36" cy="137.64" rx="6.26" ry="8.21" transform="translate(-30.72 13.8) rotate(-13.4)"/><ellipse class="cls-2" cx="122.13" cy="164.93" rx="8.56" ry="5.48" transform="translate(-83.09 163.15) rotate(-52.98)"/></g></g></svg>