<svg xmlns="http://www.w3.org/2000/svg" viewBox="0 0 64.18 235.14"><defs><style>.cls-1,.cls-3{fill:none;}.cls-1,.cls-2{stroke:#b9dfe5;}.cls-1,.cls-2,.cls-3{stroke-linecap:round;stroke-linejoin:round;stroke-width:2px;}.cls-2{fill:#b9dfe5;}.cls-3{stroke:#333e6e;}</style></defs><title>Asset 115</title><g id="Layer_2" data-name="Layer 2"><g id="Layer_1-2" data-name="Layer 1"><path class="cls-1" d="M22,230.14s.9-150.3,18.51-206.72"/><circle class="cls-2" cx="41.99" cy="11.78" r="10.78"/><path class="cls-2" d="M35.83,41.35c11.39-7.07,26-5.7,19.92,5.29C49.56,57.82,37.49,58.52,33,58.37"/><path class="cls-2" d="M28.58,93.15C40.12,83.32,58.76,83.71,52,95.87s-21,12-24.66,11.82"/><path class="cls-2" d="M24.5,150c11.09-6,24.06-4.22,18.27,6.25-4.82,8.7-13.2,11-18.81,11.6"/><path class="cls-2" d="M22.48,201.56c11.44-7.34,26.44-6.06,20.29,5.05-5.39,9.73-15.21,11.52-20.65,11.72"/><path class="cls-2" d="M23.15,180.35C12.89,171-2.74,169.84,1.81,181.93c4.5,11.93,16.29,14.39,20.8,14.9"/><path class="cls-2" d="M26.54,118c-8.51-9.07-21.09-11.53-19.07.15,2.2,12.73,13.58,17.32,17.79,18.59"/><path class="cls-2" d="M32.2,63.64c-8.48-8.42-20.27-10.41-18.31.93,1.92,11.15,10.89,16.05,15.92,18"/><path class="cls-3" d="M28,234.14s.9-150.3,18.51-206.72"/><circle class="cls-3" cx="47.99" cy="15.78" r="10.78"/><path class="cls-3" d="M41.83,45.35c11.39-7.07,26-5.7,19.92,5.29C55.56,61.82,43.49,62.52,39,62.37"/><path class="cls-3" d="M34.58,97.15C46.12,87.32,64.76,87.71,58,99.87s-21,12-24.66,11.82"/><path class="cls-3" d="M30.5,154c11.09-6,24.06-4.22,18.27,6.25-4.82,8.7-13.2,11-18.81,11.6"/><path class="cls-3" d="M28.48,205.56c11.44-7.34,26.44-6.06,20.29,5.05-5.39,9.73-15.21,11.52-20.65,11.72"/><path class="cls-3" d="M29.15,184.35C18.89,175,3.26,173.84,7.81,185.93c4.5,11.93,16.29,14.39,20.8,14.9"/><path class="cls-3" d="M32.54,122c-8.51-9.07-21.09-11.53-19.07.15,2.2,12.73,13.58,17.32,17.79,18.59"/><path class="cls-3" d="M38.2,67.64c-8.48-8.42-20.27-10.41-18.31.93,1.92,11.15,10.89,16.05,15.92,18"/></g></g></svg>