<?xml version="1.0" encoding="utf-8"?>
<!-- Generator: Adobe Illustrator 22.1.0, SVG Export Plug-In . SVG Version: 6.00 Build 0)  -->
<svg version="1.1" id="Layer_1" xmlns="http://www.w3.org/2000/svg" xmlns:xlink="http://www.w3.org/1999/xlink" x="0px" y="0px"
	 viewBox="0 0 512 512" style="enable-background:new 0 0 512 512;" xml:space="preserve">
<style type="text/css">
	.st0{fill:#313D6C;}
</style>
<path class="st0" d="M136.1,497H65V15h275.3v99.8c0,4.1,3.4,7.5,7.5,7.5h107.3c3,0,5.8-1.8,6.9-4.6c1.2-2.8,0.5-6-1.6-8.2L353.1,2.2
	c-0.2-0.2-0.5-0.5-0.8-0.7c-0.1,0-0.1-0.1-0.2-0.1c-0.3-0.2-0.5-0.4-0.8-0.5c0,0,0,0-0.1,0c-0.3-0.1-0.6-0.3-0.9-0.4
	c-0.1,0-0.1,0-0.2-0.1c-0.3-0.1-0.6-0.2-1-0.3c0,0,0,0,0,0c-0.3-0.1-0.6-0.1-0.9-0.1c-0.1,0-0.2,0-0.3,0c-0.1,0-0.2,0-0.2,0H57.5
	C53.4,0,50,3.4,50,7.5v497c0,4.1,3.4,7.5,7.5,7.5h78.6c4.1,0,7.5-3.4,7.5-7.5S140.3,497,136.1,497z M355.3,107.3V25.6l81.7,81.7
	H355.3z"/>
<path class="st0" d="M455.1,137.2c-4.1,0-7.5,3.4-7.5,7.5V497H166.7c-4.1,0-7.5,3.4-7.5,7.5s3.4,7.5,7.5,7.5h288.4
	c4.1,0,7.5-3.4,7.5-7.5V144.7C462.6,140.5,459.2,137.2,455.1,137.2z"/>
<path class="st0" d="M118.3,163.5c-4.1,0-7.5,3.4-7.5,7.5v268.4c0,4.1,3.4,7.5,7.5,7.5h276c4.1,0,7.5-3.4,7.5-7.5V171
	c0-4.1-3.4-7.5-7.5-7.5H118.3z M386.8,178.5v157L337.7,281c-2.6-2.9-7.1-3.3-10.2-0.9L243,346.7l-45.1-69.9c-1.3-2-3.5-3.3-5.9-3.4
	c-2.4-0.1-4.7,0.9-6.2,2.7l-60,73.2V178.5H386.8z M125.8,373.1l65.1-79.4l89.2,138.2H125.8V373.1z M297.9,431.9l-46.8-72.5
	l80.2-63.1l55.5,61.6v74L297.9,431.9L297.9,431.9z"/>
<path class="st0" d="M275.9,273.1c21,0,38.2-17.1,38.2-38.2s-17.1-38.2-38.2-38.2s-38.2,17.1-38.2,38.2S254.9,273.1,275.9,273.1z
	 M275.9,211.7c12.8,0,23.2,10.4,23.2,23.2c0,12.8-10.4,23.2-23.2,23.2c-12.8,0-23.2-10.4-23.2-23.2
	C252.8,222.1,263.2,211.7,275.9,211.7z"/>
</svg>
