<?xml version="1.0" encoding="utf-8"?>
<!-- Generator: Adobe Illustrator 22.1.0, SVG Export Plug-In . SVG Version: 6.00 Build 0)  -->
<svg version="1.1" id="Layer_1" xmlns="http://www.w3.org/2000/svg" xmlns:xlink="http://www.w3.org/1999/xlink" x="0px" y="0px"
	 viewBox="0 0 512 511" style="enable-background:new 0 0 512 511;" xml:space="preserve">
<style type="text/css">
	.st0{fill:#313D6C;}
</style>
<path class="st0" d="M261.5,254.9c1.5,1.5,3.4,2.2,5.3,2.2c1.9,0,3.8-0.7,5.3-2.2l14.6-14.6l14.6,14.6c1.5,1.5,3.4,2.2,5.3,2.2
	c1.9,0,3.8-0.7,5.3-2.2c2.9-2.9,2.9-7.7,0-10.6l-14.6-14.6L312,215c2.9-2.9,2.9-7.7,0-10.6s-7.7-2.9-10.6,0L286.7,219l-14.6-14.6
	c-2.9-2.9-7.7-2.9-10.6,0c-2.9,2.9-2.9,7.7,0,10.6l14.6,14.6l-14.6,14.6C258.5,247.2,258.5,251.9,261.5,254.9z"/>
<path class="st0" d="M363.9,186.7c-20.6-20.6-48-32-77.1-32s-56.5,11.3-77.1,32s-32,48-32,77.1s11.3,56.5,32,77.1s48,32,77.1,32
	s56.5-11.3,77.1-32C406.4,298.5,406.4,229.3,363.9,186.7z M220.2,197.3c17.8-17.8,41.4-27.6,66.5-27.6c25.1,0,48.8,9.8,66.5,27.6
	c25.2,25.2,33.1,61.3,23.7,93.3H196.5c-2.5-8.6-3.8-17.6-3.8-26.8C192.7,238.7,202.5,215.1,220.2,197.3z M353.3,330.4
	c-17.8,17.8-41.4,27.6-66.5,27.6c-25.1,0-48.8-9.8-66.5-27.6c-7.4-7.4-13.3-15.7-17.8-24.8h168.7C366.6,314.6,360.7,323,353.3,330.4
	z"/>
<path class="st0" d="M501.9,435.2l-90.5-90.5c15.6-23.9,23.9-51.7,23.9-80.9c0-39.7-15.5-77-43.5-105.1
	c-28.1-28.1-65.4-43.5-105.1-43.5c-39.7,0-77,15.5-105.1,43.5c-28.1,28.1-43.5,65.4-43.5,105.1c0,39.7,15.5,77,43.5,105.1
	c29,29,67,43.4,105.1,43.4c28.2,0,56.4-8,80.9-23.9l90.5,90.5c6,6,14,9.1,21.9,9.1s15.9-3,21.9-9.1C514,467,514,447.3,501.9,435.2z
	 M192.3,358.3c-25.2-25.2-39.1-58.8-39.1-94.4c0-35.7,13.9-69.2,39.1-94.4c25.2-25.2,58.8-39.1,94.4-39.1s69.2,13.9,94.4,39.1
	c25.2,25.2,39.1,58.8,39.1,94.4s-13.9,69.2-39.1,94.4C329.1,410.4,244.4,410.4,192.3,358.3z M491.3,468.4c-6.2,6.2-16.4,6.2-22.6,0
	l-88.8-88.8c4.1-3.3,8.1-6.9,11.9-10.7c3.8-3.8,7.4-7.8,10.7-11.9l88.8,88.8C497.6,452.1,497.6,462.2,491.3,468.4z"/>
<path class="st0" d="M117.6,233.4H14V38.5h461.2v194.9h-19.1c-4.1,0-7.5,3.4-7.5,7.5c0,4.1,3.4,7.5,7.5,7.5h26.6
	c4.1,0,7.5-3.4,7.5-7.5V31c0-4.1-3.4-7.5-7.5-7.5H6.5C2.4,23.5-1,26.9-1,31v209.9c0,4.1,3.4,7.5,7.5,7.5h111.1
	c4.1,0,7.5-3.4,7.5-7.5C125.1,236.8,121.7,233.4,117.6,233.4z"/>
<path class="st0" d="M66.3,75.4c-4.1,0-7.5,3.4-7.5,7.5c0,4.1,3.4,7.5,7.5,7.5h356.6c4.1,0,7.5-3.4,7.5-7.5c0-4.1-3.4-7.5-7.5-7.5
	H66.3z"/>
</svg>
