<svg xmlns="http://www.w3.org/2000/svg" xmlns:xlink="http://www.w3.org/1999/xlink" viewBox="0 0 1200.37 600.37"><defs><style>.cls-1{fill:none;}.cls-2{fill:#fff;stroke-width:3px;}.cls-2,.cls-4,.cls-5{stroke:#ea4a4d;stroke-miterlimit:10;}.cls-3{opacity:0.2;fill:url(#Japanese_Pattern);}.cls-4,.cls-5{fill:#ea4a4d;}.cls-4{stroke-width:0.37px;opacity:0.4;}.cls-5{stroke-width:0.83px;}.cls-6{font-size:94.93px;font-family:HiraMaruProN-W4-83pv-RKSJ-H, Hiragino Maru Gothic ProN;}.cls-12,.cls-6,.cls-7{fill:#2d3b8e;}.cls-7{font-size:24.71px;letter-spacing:0.09em;}.cls-12,.cls-7{font-family:Futura-Medium, Futura;}.cls-8{letter-spacing:0.1em;}.cls-9{letter-spacing:0.11em;}.cls-10{letter-spacing:0.1em;}.cls-11{letter-spacing:0.11em;}.cls-12{font-size:18px;letter-spacing:0.38em;}.cls-13{letter-spacing:0.39em;}.cls-14{letter-spacing:0.38em;}.cls-15{letter-spacing:0.39em;}</style><pattern id="Japanese_Pattern" data-name="Japanese Pattern" width="99.58" height="91.4" patternTransform="translate(-62 -24.73)" patternUnits="userSpaceOnUse" viewBox="0 0 99.58 91.4"><rect class="cls-1" width="99.58" height="91.4"/><circle class="cls-2" cx="49.79" cy="-38.36" r="48.29"/><circle class="cls-2" cx="99.58" cy="-15.51" r="48.29"/><circle class="cls-2" cx="99.58" cy="-15.51" r="31.43"/><circle class="cls-2" cx="99.58" cy="-15.51" r="16.18"/><circle class="cls-2" cy="-15.51" r="48.29"/><circle class="cls-2" cy="-15.51" r="31.43"/><circle class="cls-2" cy="-15.51" r="16.18"/><circle class="cls-2" cx="49.79" cy="7.34" r="48.29"/><circle class="cls-2" cx="49.79" cy="7.34" r="31.43"/><circle class="cls-2" cx="49.79" cy="7.34" r="16.18"/><circle class="cls-2" cx="99.58" cy="30.19" r="48.29"/><circle class="cls-2" cx="99.58" cy="30.19" r="31.43"/><circle class="cls-2" cx="99.58" cy="30.19" r="16.18"/><circle class="cls-2" cy="30.19" r="48.29"/><circle class="cls-2" cy="30.19" r="31.43"/><circle class="cls-2" cy="30.19" r="16.18"/><circle class="cls-2" cx="49.79" cy="53.04" r="48.29"/><circle class="cls-2" cx="49.79" cy="53.04" r="31.43"/><circle class="cls-2" cx="49.79" cy="53.04" r="16.18"/><circle class="cls-2" cx="99.58" cy="75.89" r="48.29"/><circle class="cls-2" cx="99.58" cy="75.89" r="31.43"/><circle class="cls-2" cx="99.58" cy="75.89" r="16.18"/><circle class="cls-2" cy="75.89" r="48.29"/><circle class="cls-2" cy="75.89" r="31.43"/><circle class="cls-2" cy="75.89" r="16.18"/><circle class="cls-2" cx="49.79" cy="98.74" r="48.29"/><circle class="cls-2" cx="49.79" cy="98.74" r="31.43"/><circle class="cls-2" cx="49.79" cy="98.74" r="16.18"/><circle class="cls-2" cx="99.58" cy="121.59" r="48.29"/><circle class="cls-2" cx="99.58" cy="121.59" r="31.43"/><circle class="cls-2" cy="121.59" r="48.29"/><circle class="cls-2" cy="121.59" r="31.43"/></pattern></defs><title>Asset 15</title><g id="Layer_2" data-name="Layer 2"><g id="Layer_1-2" data-name="Layer 1"><rect class="cls-3" x="0.19" y="0.19" width="1200" height="600"/><rect class="cls-4" x="0.19" y="0.19" width="1200" height="600"/><circle class="cls-5" cx="403.9" cy="280.44" r="91.31"/><text class="cls-6" transform="translate(312.58 210.52)">魚<tspan x="0" y="113.92">天</tspan><tspan x="0" y="227.83">国</tspan></text><text class="cls-7" transform="translate(614.57 307.5)">S<tspan class="cls-8" x="16.69" y="0">AKA</tspan><tspan class="cls-9" x="77.08" y="0">N</tspan><tspan class="cls-10" x="100.56" y="0">A TE</tspan><tspan class="cls-11" x="162.28" y="0">N</tspan><tspan class="cls-10" x="185.8" y="0">GOKU</tspan></text><text class="cls-12" transform="translate(614.78 331.44)">sea<tspan class="cls-13" x="48.68" y="0">f</tspan><tspan x="61.12" y="0">ood </tspan><tspan class="cls-14" x="126.61" y="0">r</tspan><tspan x="140.1" y="0">es</tspan><tspan class="cls-15" x="171.11" y="0">t</tspan><tspan x="183.07" y="0">au</tspan><tspan class="cls-14" x="217.42" y="0">r</tspan><tspan x="230.91" y="0">ant</tspan></text></g></g></svg>