<?xml version="1.0" encoding="utf-8"?>
<!-- Generator: Adobe Illustrator 23.0.3, SVG Export Plug-In . SVG Version: 6.00 Build 0)  -->
<svg version="1.1" id="Layer_1" xmlns="http://www.w3.org/2000/svg" xmlns:xlink="http://www.w3.org/1999/xlink" x="0px" y="0px"
	 viewBox="0 0 887.7 759.7" style="enable-background:new 0 0 887.7 759.7;" xml:space="preserve">
<style type="text/css">
	.st0{clip-path:url(#SVGID_2_);}
	.st1{fill:none;stroke:#313D6C;stroke-width:11;stroke-miterlimit:10;}
</style>
<g>
	<g>
		<g>
			<defs>
				<path id="SVGID_1_" d="M6.1,300.1C0.1,203.2,41,97.8,116.4,53c75.5-44.6,185.8-28.9,292.5-34.1c106.6-5.3,209.2-31.8,261.9,8.6
					c52.4,40.4,54.7,147.7,97.9,257.3C811.8,394.5,895.8,506.4,880.3,592c-15.6,85.4-131.1,144.3-237.9,158.5
					c-107.1,14.2-205.6-16.3-291.8-53.3c-86-36.8-159.6-80.3-222.8-146.2S12,396.9,6.1,300.1z"/>
			</defs>
			<clipPath id="SVGID_2_">
				<use xlink:href="#SVGID_1_"  style="overflow:visible;"/>
			</clipPath>
			<g transform="matrix(1 0 0 1 0 0)" class="st0">
				
					<image style="overflow:visible;enable-background:new    ;" width="4032" height="3024" xlink:href="../../../Downloads/IMG_1057.jpg"  transform="matrix(0.2488 0 0 0.2488 -82.9036 4.6358)">
				</image>
			</g>
		</g>
	</g>
</g>
<g>
	<g transform="translate(300,300)">
		<path class="st1" d="M-293.9,0.1c-6-96.8,34.9-202.2,110.3-247.1c75.5-44.6,185.8-28.9,292.5-34.1c106.6-5.3,209.2-31.8,261.9,8.6
			c52.4,40.4,54.7,147.7,97.9,257.3C511.8,94.5,595.8,206.4,580.3,292c-15.6,85.4-131.1,144.3-237.9,158.5
			c-107.1,14.2-205.6-16.3-291.8-53.3c-86-36.8-159.6-80.3-222.8-146.2S-288,96.9-293.9,0.1z"/>
	</g>
</g>
</svg>
