<svg xmlns="http://www.w3.org/2000/svg" viewBox="0 0 80.28 225.53"><defs><style>.cls-1,.cls-6{fill:none;stroke-width:2px;}.cls-1,.cls-2,.cls-3,.cls-4,.cls-5{stroke:#f4a985;}.cls-1,.cls-2,.cls-3,.cls-4,.cls-5,.cls-6{stroke-linecap:round;stroke-linejoin:round;}.cls-2,.cls-3,.cls-4,.cls-5{fill:#f4a985;}.cls-2{stroke-width:1.62px;}.cls-3{stroke-width:1.35px;}.cls-4{stroke-width:1.45px;}.cls-5{stroke-width:1.56px;}.cls-6{stroke:#333e6e;}</style></defs><title>Asset 95</title><g id="Layer_2" data-name="Layer 2"><g id="Layer_1-2" data-name="Layer 1"><path class="cls-1" d="M51.81,216.53S22.53,150.4,34.14,45.4"/><path class="cls-2" d="M32.57,82.82S30.09,53,66,47.24h0S68.48,77.1,32.54,82.82"/><path class="cls-2" d="M33.66,45.39S21.54,18,53.63.81h0s12.12,27.4-20,44.58"/><path class="cls-3" d="M32.57,125s-2.06-24.79,27.78-29.54h0S62.38,120.22,32.54,125"/><path class="cls-2" d="M38.81,171s-2.48-29.86,33.47-35.58h0S74.72,165.29,38.77,171"/><path class="cls-4" d="M1.52,52.28S-.7,79,31.42,84.06h0S33.6,57.39,1.49,52.28"/><path class="cls-4" d="M1.52,93.19S-.7,119.86,31.42,125h0S33.6,98.29,1.49,93.19"/><path class="cls-5" d="M.81,144.38s3,28.65,38,27.63h0s-3-28.65-38-27.63"/><path class="cls-6" d="M58.81,224.53S29.53,158.4,41.14,53.4"/><path class="cls-6" d="M39.57,90.82S37.09,61,73,55.24h0S75.48,85.1,39.54,90.82"/><path class="cls-6" d="M40.66,53.39S28.54,26,60.63,8.81h0s12.12,27.4-20,44.58"/><path class="cls-6" d="M39.57,133s-2.06-24.79,27.78-29.54h0S69.38,128.22,39.54,133"/><path class="cls-6" d="M45.81,179s-2.48-29.86,33.47-35.58h0S81.72,173.29,45.77,179"/><path class="cls-6" d="M8.52,60.28S6.3,87,38.42,92.06h0S40.6,65.39,8.49,60.28"/><path class="cls-6" d="M8.52,101.19S6.3,127.86,38.42,133h0s2.21-26.68-29.9-31.78"/><path class="cls-6" d="M7.81,152.38s3,28.65,38,27.63h0s-3-28.65-38-27.63"/></g></g></svg>