<svg xmlns="http://www.w3.org/2000/svg" viewBox="0 0 127.15 296.02"><defs><style>.cls-1{fill:#f4a985;stroke:#f4a985;}.cls-1,.cls-2{stroke-linecap:round;stroke-linejoin:round;stroke-width:2px;}.cls-2{fill:none;stroke:#333e6e;}</style></defs><title>Asset 125</title><g id="Layer_2" data-name="Layer 2"><g id="Layer_1-2" data-name="Layer 1"><path class="cls-1" d="M80.63,1s29.24,32.88,30.09,60a2.6,2.6,0,0,1-.28,1.25l-14.76,30s17-11.31,18.47-12.47-.33,55.5-8,70.16a101.05,101.05,0,0,1-19,25s17.35-10.3,22.34-13.66c.77-.53,2,39-51.67,86v35l-10,1.75L39.09,239S10.09,227.46,1,161.41l19.22,7s-31.1-35-2.09-96.81l19.22,8S33.85,58,42.24,36.29l19,9.15L49.93,25.8S54.71,17.44,80.63,1Z"/><path class="cls-2" d="M92.15,12s29.24,32.88,30.09,60a2.65,2.65,0,0,1-.28,1.24l-14.76,30s17-11.31,18.47-12.48-.33,55.5-8,70.17a101.33,101.33,0,0,1-19,25S116,175.6,121,172.24c.78-.52,2,39-51.66,86v35l-10,1.74-8.74-45.08s-29-11.53-38.09-77.59l19.22,7s-31.11-35-2.1-96.81l19.22,8s-3.49-21.67,4.9-43.34l19,9.16L61.45,36.75S66.23,28.38,92.15,12Z"/><path class="cls-2" d="M82.59,78.94c0,1.43-17.2,54.48-19.59,149.09"/></g></g></svg>