<svg xmlns="http://www.w3.org/2000/svg" viewBox="0 0 128.42 133.39"><defs><style>.cls-1{fill:#323e6d;}.cls-2{fill:#242f51;}.cls-3{fill:#f3986d;}.cls-4{fill:#d27751;}</style></defs><title>Asset 25</title><g id="Layer_2" data-name="Layer 2"><g id="Layer_1-2" data-name="Layer 1"><path class="cls-1" d="M126.92,14.48H106.09a1.51,1.51,0,0,0-1.5,1.5V47.1a1.5,1.5,0,0,1-1.49,1.5H87a1.5,1.5,0,0,0-1.5,1.5v60.09a1.5,1.5,0,0,0,1.5,1.5h20a1.5,1.5,0,0,1,1.5,1.5v18.7a1.5,1.5,0,0,0,1.49,1.5h17a1.5,1.5,0,0,0,1.5-1.5V16A1.5,1.5,0,0,0,126.92,14.48Z"/><path class="cls-2" d="M97.66,57.9h29.39a1.36,1.36,0,0,1,1.36,1.36V96.75a21.81,21.81,0,0,1-21.81,21.81H97.66a1.36,1.36,0,0,1-1.36-1.36V59.26A1.36,1.36,0,0,1,97.66,57.9Z"/><path class="cls-3" d="M95.25,0H41.43A41.43,41.43,0,0,0,0,41.43H0a1.5,1.5,0,0,0,1.5,1.5H83.6a1.5,1.5,0,0,0,1.5-1.5V6a1.5,1.5,0,0,1,1.49-1.5h8.66A1.5,1.5,0,0,0,96.74,3V1.5A1.5,1.5,0,0,0,95.25,0Z"/><path class="cls-4" d="M13.54,28.45H20.3a4.48,4.48,0,0,1,4.48,4.48v5.52a4.48,4.48,0,0,1-4.48,4.48H.95A.95.95,0,0,1,0,42v0A13.54,13.54,0,0,1,13.54,28.45Z"/></g></g></svg>