<svg xmlns="http://www.w3.org/2000/svg" width="432" height="432" viewBox="0 0 432 432">
  <g id="Symbol_1_1" data-name="Symbol 1 – 1" transform="translate(-542 -27)">
    <circle id="Ellipse_4" data-name="Ellipse 4" cx="216" cy="216" r="216" transform="translate(542 27)" fill="#fff"/>
    <g id="Group_11" data-name="Group 11" transform="translate(1781.87 -1378.215)">
      <path id="Path_9" data-name="Path 9" d="M-901.722,1550.685h-35.946a2.587,2.587,0,0,0-2.587,2.587v53.714a2.587,2.587,0,0,1-2.587,2.587h-27.805a2.587,2.587,0,0,0-2.587,2.587v103.717a2.587,2.587,0,0,0,2.587,2.587h34.47a2.587,2.587,0,0,1,2.587,2.587v32.281A2.587,2.587,0,0,0-931,1755.92h29.281a2.587,2.587,0,0,0,2.587-2.587v-200.06A2.587,2.587,0,0,0-901.722,1550.685Z" transform="translate(-44.078 -7.468)" fill="#313d6c"/>
      <path id="Rectangle_107" data-name="Rectangle 107" d="M3.057,0H52.383a3.057,3.057,0,0,1,3.057,3.057v52.77A48.893,48.893,0,0,1,6.547,104.719H3.057A3.057,3.057,0,0,1,0,101.662V3.057A3.057,3.057,0,0,1,3.057,0Z" transform="translate(-998.652 1618.148)" fill="#232e51"/>
      <path id="Path_10" data-name="Path 10" d="M-1000.469,1518.215h-92.887a71.515,71.515,0,0,0-71.515,71.515h0a2.586,2.586,0,0,0,2.586,2.586h141.709a2.585,2.585,0,0,0,2.585-2.586v-61.248a2.586,2.586,0,0,1,2.586-2.586h14.936a2.587,2.587,0,0,0,2.587-2.587V1520.8A2.587,2.587,0,0,0-1000.469,1518.215Z" fill="#f3976c"/>
      <path id="Rectangle_108" data-name="Rectangle 108" d="M23.367,0H35.039a7.734,7.734,0,0,1,7.734,7.734v9.533A7.734,7.734,0,0,1,35.039,25H1.634A1.634,1.634,0,0,1,0,23.367v0A23.367,23.367,0,0,1,23.367,0Z" transform="translate(-1164.87 1567.314)" fill="#d27650"/>
    </g>
  </g>
</svg>
