<?xml version="1.0" encoding="utf-8"?>
<!-- Generator: Adobe Illustrator 22.1.0, SVG Export Plug-In . SVG Version: 6.00 Build 0)  -->
<svg version="1.1" id="Layer_1" xmlns="http://www.w3.org/2000/svg" xmlns:xlink="http://www.w3.org/1999/xlink" x="0px" y="0px"
	 viewBox="0 0 512 512" style="enable-background:new 0 0 512 512;" xml:space="preserve">
<style type="text/css">
	.st0{fill:#313D6C;}
</style>
<path class="st0" d="M490.6,51h-67.7c-4.1,0-7.5,3.4-7.5,7.5s3.4,7.5,7.5,7.5h67.7c3.5,0,6.4,2.9,6.4,6.4v246.8H15V72.4
	c0-3.5,2.9-6.4,6.4-6.4h371.9c4.1,0,7.5-3.4,7.5-7.5c0-4.1-3.4-7.5-7.5-7.5H21.4C9.6,51,0,60.6,0,72.4v287.5
	c0,11.8,9.6,21.4,21.4,21.4h272.3l8.4,64.2h-92.2l5.3-40.3c0.5-4.1-2.4-7.9-6.5-8.4c-4.1-0.5-7.9,2.4-8.4,6.5l-5.6,42.3h-35.1
	c-4.1,0-7.5,3.4-7.5,7.5c0,4.1,3.4,7.5,7.5,7.5h192.6c4.1,0,7.5-3.4,7.5-7.5c0-4.1-3.4-7.5-7.5-7.5h-35.1l-8.4-64.2h181.8
	c11.8,0,21.4-9.6,21.4-21.4V72.4C512,60.6,502.4,51,490.6,51z M490.6,366.2H21.4c-3.5,0-6.4-2.9-6.4-6.4v-25.7h482v25.7
	C497,363.4,494.1,366.2,490.6,366.2z"/>
<path class="st0" d="M95.2,203.1c-4.1,0-7.5,3.4-7.5,7.5v71.2c0,4.1,3.4,7.5,7.5,7.5h46c4.1,0,7.5-3.4,7.5-7.5v-71.2
	c0-4.1-3.4-7.5-7.5-7.5H95.2z M133.6,274.3h-31v-56.2h31V274.3z"/>
<path class="st0" d="M363.4,247.3v33.9c0,4.1,3.4,7.5,7.5,7.5h46c4.1,0,7.5-3.4,7.5-7.5v-33.9c0-4.1-3.4-7.5-7.5-7.5h-46
	C366.7,239.8,363.4,243.2,363.4,247.3z M378.4,254.8h31v18.9h-31V254.8z"/>
<path class="st0" d="M279,172.7c-4.1,0-7.5,3.4-7.5,7.5v101.6c0,4.1,3.4,7.5,7.5,7.5h46c4.1,0,7.5-3.4,7.5-7.5V180.2
	c0-4.1-3.4-7.5-7.5-7.5H279z M317.4,274.3h-31v-86.6h31V274.3z"/>
<path class="st0" d="M187.1,137.8c-4.1,0-7.5,3.4-7.5,7.5v136.5c0,4.1,3.4,7.5,7.5,7.5h46c4.1,0,7.5-3.4,7.5-7.5V145.3
	c0-4.1-3.4-7.5-7.5-7.5H187.1z M225.5,274.3h-31V152.8h31V274.3z"/>
</svg>
