<?xml version="1.0" encoding="utf-8"?>
<!-- Generator: Adobe Illustrator 22.1.0, SVG Export Plug-In . SVG Version: 6.00 Build 0)  -->
<svg version="1.1" id="Layer_1" xmlns="http://www.w3.org/2000/svg" xmlns:xlink="http://www.w3.org/1999/xlink" x="0px" y="0px"
	 viewBox="0 0 511 512" style="enable-background:new 0 0 511 512;" xml:space="preserve">
<style type="text/css">
	.st0{fill:#313D6C;}
</style>
<path class="st0" d="M453.6,158.8H335c-4.1,0-7.5,3.4-7.5,7.5c0,4.1,3.4,7.5,7.5,7.5h118.6c2.5,0,4.6,2,4.6,4.6v26.9H314.9V45.9
	C314.9,20.6,294.3,0,269,0c-4.1,0-7.5,3.4-7.5,7.5s3.4,7.5,7.5,7.5c17,0,30.9,13.9,30.9,30.9V55H53.5v-9.1c0-17,13.9-30.9,30.9-30.9
	h153.4c4.1,0,7.5-3.4,7.5-7.5S242,0,237.8,0H84.4C59.1,0,38.5,20.6,38.5,45.9v349.7c0,25.3,20.6,45.9,45.9,45.9h166.4v51
	c0,10.8,8.8,19.6,19.6,19.6h183.2c10.8,0,19.5-8.8,19.5-19.5V178.3C473.1,167.6,464.3,158.8,453.6,158.8z M53.5,395.6V70h246.4
	v299.1h-223c-4.1,0-7.5,3.4-7.5,7.5c0,4.1,3.4,7.5,7.5,7.5h223v11.4c0,17-13.9,30.9-30.9,30.9H84.4
	C67.4,426.5,53.5,412.6,53.5,395.6z M269,441.5c25.3,0,45.9-20.6,45.9-45.9V220.2h143.2v230.3H265.8v-9.1H269z M265.8,492.4v-26.9
	h88.6V497h-84.1C267.9,497,265.8,495,265.8,492.4z M453.6,497h-84.1v-31.4h88.6v26.9C458.1,495,456.1,497,453.6,497z"/>
<path class="st0" d="M176.6,390.3c-8.6,0-15.5,7-15.5,15.5c0,8.6,7,15.5,15.5,15.5c8.6,0,15.5-7,15.5-15.5
	C192.1,397.3,185.1,390.3,176.6,390.3z M176.6,406.4c-0.3,0-0.5-0.2-0.5-0.5s0.2-0.5,0.5-0.5s0.5,0.2,0.5,0.5
	S176.9,406.4,176.6,406.4z"/>
</svg>
