<?xml version="1.0" encoding="utf-8"?>
<!-- Generator: Adobe Illustrator 22.1.0, SVG Export Plug-In . SVG Version: 6.00 Build 0)  -->
<svg version="1.1" id="Layer_1" xmlns="http://www.w3.org/2000/svg" xmlns:xlink="http://www.w3.org/1999/xlink" x="0px" y="0px"
	 viewBox="0 0 512 511" style="enable-background:new 0 0 512 511;" xml:space="preserve">
<style type="text/css">
	.st0{fill:#313D6C;}
</style>
<g>
	<path class="st0" d="M490.5,51.5h-66.9c-4.1,0-7.5,3.4-7.5,7.5s3.4,7.5,7.5,7.5h66.9c3.5,0,6.4,2.9,6.4,6.4v246.8h-482V72.9
		c0-3.5,2.9-6.4,6.4-6.4h370.2c4.1,0,7.5-3.4,7.5-7.5s-3.4-7.5-7.5-7.5H21.3c-11.8,0-21.4,9.6-21.4,21.4v287.5
		c0,11.8,9.6,21.4,21.4,21.4h272.3L302,446h-92.2l5.5-45.4c0.5-4.1-2.4-7.8-6.5-8.3s-7.9,2.4-8.3,6.5l-5.7,47.2h-35
		c-4.1,0-7.5,3.4-7.5,7.5s3.4,7.5,7.5,7.5h192.6c4.1,0,7.5-3.4,7.5-7.5s-3.4-7.5-7.5-7.5h-35.1l-8.4-64.2h181.8
		c11.8,0,21.4-9.6,21.4-21.4V72.9C511.9,61.1,502.3,51.5,490.5,51.5z M490.5,366.7H21.3c-3.5,0-6.4-2.9-6.4-6.4v-25.7h482v25.7
		C496.9,363.9,494,366.7,490.5,366.7z"/>
</g>
<g>
	<path class="st0" d="M209.3,233.8c1.3,1.3,3,2,4.8,2c1.7,0,3.5-0.7,4.8-2c2.6-2.6,2.6-6.9,0-9.6l-29-29.1l29-29
		c2.6-2.6,2.6-6.9,0-9.6c-2.6-2.6-6.9-2.6-9.6,0l-33.8,33.8c-1.3,1.3-2,3-2,4.8s0.7,3.5,2,4.8L209.3,233.8z"/>
	<path class="st0" d="M292.9,233.8c1.3,1.3,3,2,4.8,2c1.7,0,3.5-0.7,4.8-2l33.8-33.8c2.6-2.6,2.6-6.9,0-9.6l-33.8-33.8
		c-2.6-2.6-6.9-2.6-9.6,0c-2.6,2.6-2.6,6.9,0,9.6l29.1,29l-29.1,29.1C290.3,226.9,290.3,231.2,292.9,233.8z"/>
	<path class="st0" d="M241.1,262.8c0.4,0.1,0.9,0.1,1.3,0.1c3.2,0,6-2.2,6.6-5.5l23.9-121.8c0.7-3.7-1.7-7.2-5.3-7.9
		c-3.7-0.7-7.2,1.7-7.9,5.3l-23.9,121.8C235,258.5,237.4,262,241.1,262.8z"/>
</g>
</svg>
